<svg xmlns="http://www.w3.org/2000/svg" viewBox="0 0 26 26" enable-background="new 0 0 26 26" width="18" height="18" fill="#4d4d4d">
    <path d="M 21 0 C 18.238576 0 16 2.2385763 16 5 C 16 5.0866303 16.026897 5.1644519 16.03125 5.25 L 8.1875 9.1875 C 7.3184569 8.457626 6.2236842 8 5 8 C 2.2385763 8 0 10.238576 0 13 C 0 15.761424 2.2385763 18 5 18 C 6.2236842 18 7.3184569 17.542374 8.1875 16.8125 L 16.03125 20.75 C 16.026897 20.835548 16 20.91337 16 21 C 16 23.761424 18.238576 26 21 26 C 23.761424 26 26 23.761424 26 21 C 26 18.238576 23.761424 16 21 16 C 19.776316 16 18.681543 16.457626 17.8125 17.1875 L 9.96875 13.25 C 9.9731033 13.164452 10 13.08663 10 13 C 10 12.91337 9.9731033 12.835548 9.96875 12.75 L 17.8125 8.8125 C 18.681543 9.5423741 19.776316 10 21 10 C 23.761424 10 26 7.7614237 26 5 C 26 2.2385763 23.761424 0 21 0 z"/>
</svg>
